<?xml version="1.0" encoding="utf-8"?>
<!-- Generator: Adobe Illustrator 24.0.0, SVG Export Plug-In . SVG Version: 6.00 Build 0)  -->
<svg version="1.1" id="Calque_1" xmlns="http://www.w3.org/2000/svg" xmlns:xlink="http://www.w3.org/1999/xlink" x="0px" y="0px"
	 viewBox="0 0 100 100" style="enable-background:new 0 0 100 100;" xml:space="preserve">
<style type="text/css">
	.st0{fill:#F0C804;}
	.st1{fill:#FFFFFF;}
</style>
<g>
	<path class="st0" d="M50,5.8C27.2,5.8,8.71,23.35,8.71,45c0,14.79,8.63,27.65,21.36,34.33c0,0-0.01,0-0.01,0s0.08,4.37-5.09,11.85
		c-5.17,7.48,10.7-0.5,17.67-6.98c0.23-0.21,0.35-0.39,0.52-0.58c2.23,0.35,4.5,0.58,6.83,0.58c22.8,0,41.29-17.55,41.29-39.2
		C91.29,23.35,72.8,5.8,50,5.8z"/>
	<g>
		<path class="st1" d="M34.13,25.89c0.38,0.03,0.75,0.06,1.13,0.08c7.43,0.51,14.07,3.07,19.89,7.7
			c5.82,4.63,9.83,10.54,12.09,17.63c0.74,2.32,1.23,4.68,1.46,7.1c0.11,1.24,0.15,2.49,0.21,3.74c0,0.03,0,0.06-0.01,0.11
			c-2.39,0-4.78,0-7.16,0c-0.21-9-3.58-16.55-10.47-22.39c-5.27-4.47-11.45-6.65-18.37-6.7c0-2.43,0-4.85,0-7.28
			C33.31,25.89,33.72,25.89,34.13,25.89z"/>
		<path class="st1" d="M32.9,38.17c1.54-0.03,3.07,0.13,4.58,0.43c5.14,1.04,9.48,3.5,13.01,7.38c3.04,3.34,4.97,7.24,5.84,11.67
			c0.28,1.45,0.42,2.91,0.44,4.38c0,0.07,0,0.15,0,0.23c-2.34,0-4.65,0-6.98,0c-0.02-0.37-0.03-0.74-0.05-1.11
			c-0.33-4.52-2.13-8.35-5.44-11.45c-2.54-2.38-5.56-3.82-9.02-4.3c-0.79-0.11-1.58-0.12-2.38-0.18
			C32.9,42.86,32.9,40.51,32.9,38.17z"/>
		<path class="st1" d="M32.9,56.99c0.06-0.33,0.1-0.66,0.18-0.98c0.48-1.88,2.1-3.38,3.96-3.66c2.06-0.31,3.97,0.58,5.02,2.33
			c1.82,3.03,0.04,6.93-3.44,7.52c-2.61,0.44-5.23-1.45-5.63-4.07c-0.03-0.19-0.06-0.37-0.09-0.56C32.9,57.39,32.9,57.19,32.9,56.99
			z"/>
	</g>
</g>
</svg>
